<svg id="Layer_1" data-name="Layer 1" xmlns="http://www.w3.org/2000/svg" viewBox="0 0 1366 768"><defs><style>.cls-1{fill:#ff0d6b;}.cls-2{fill:#ff80b4;}.cls-3{fill:#ffdc4a;}.cls-4{fill:#d6af07;}.cls-5{fill:#fff;}.cls-6{fill:#fff6d2;}</style></defs><rect class="cls-1" x="1077.01" y="595.42" width="125.12" height="37.63" rx="18.81" transform="translate(-115.41 931.9) rotate(-42.53)"/><rect class="cls-2" x="1106.98" y="611.45" width="84.12" height="5.56" rx="1.42" transform="translate(-112.92 938.31) rotate(-42.53)"/><rect class="cls-1" x="1259.57" y="346.48" width="21.4" height="71.14" rx="10.7" transform="translate(-54.09 307.03) rotate(-13.5)"/><rect class="cls-2" x="1271.3" y="353.42" width="3.16" height="47.83" rx="0.81" transform="translate(-52.91 307.51) rotate(-13.5)"/><rect class="cls-1" x="831.82" y="359.6" width="21.4" height="71.14" rx="10.7" transform="translate(-68.96 207.56) rotate(-13.5)"/><rect class="cls-2" x="843.55" y="366.54" width="3.16" height="47.83" rx="0.81" transform="translate(-67.79 208.04) rotate(-13.5)"/><rect class="cls-1" x="780.55" y="496.53" width="12.26" height="40.77" rx="6.13" transform="translate(90.62 1150.61) rotate(-75.62)"/><rect class="cls-2" x="784.09" y="500.62" width="1.81" height="27.41" rx="0.46" transform="translate(91.86 1147.03) rotate(-75.62)"/><rect class="cls-3" x="932.93" y="264.03" width="32.47" height="107.97" rx="16.24" transform="translate(34.73 725.27) rotate(-42.53)"/><rect class="cls-4" x="946.77" y="273.54" width="4.8" height="72.59" rx="1.23" transform="translate(40.26 723.12) rotate(-42.53)"/><rect class="cls-3" x="1091.05" y="199.47" width="32.47" height="107.97" rx="16.24" transform="translate(119.97 815.17) rotate(-42.53)"/><rect class="cls-4" x="1104.89" y="208.99" width="4.8" height="72.59" rx="1.23" transform="translate(125.49 813.02) rotate(-42.53)"/><rect class="cls-3" x="824.07" y="553.21" width="76.13" height="22.9" rx="11.45" transform="translate(-149.04 365.55) rotate(-22.08)"/><rect class="cls-4" x="831.14" y="560.95" width="51.19" height="3.38" rx="0.87" transform="translate(-148.68 363.38) rotate(-22.08)"/><rect class="cls-3" x="732.67" y="450.74" width="38.07" height="11.45" rx="5.72" transform="translate(-116.46 316.1) rotate(-22.08)"/><rect class="cls-4" x="736.21" y="454.61" width="25.59" height="1.69" rx="0.43" transform="translate(-116.28 315.01) rotate(-22.08)"/><path class="cls-3" d="M587.41,702.31l-14,24.3a8.5,8.5,0,0,0,7.36,12.75H608.8a8.5,8.5,0,0,0,7.37-12.75l-14-24.3A8.5,8.5,0,0,0,587.41,702.31Z"/><rect class="cls-5" x="583.17" y="725.93" width="9.25" height="9.25" rx="2.37"/><path class="cls-3" d="M628.69,644.14l-14,24.3A8.5,8.5,0,0,0,622,681.2h28.06a8.51,8.51,0,0,0,7.36-12.76l-14-24.3A8.5,8.5,0,0,0,628.69,644.14Z"/><rect class="cls-5" x="624.45" y="667.76" width="9.25" height="9.25" rx="2.37"/><path class="cls-3" d="M557.89,644.14l-14,24.3a8.51,8.51,0,0,0,7.36,12.76h28.06a8.51,8.51,0,0,0,7.37-12.76l-14-24.3A8.51,8.51,0,0,0,557.89,644.14Z"/><rect class="cls-5" x="553.65" y="667.76" width="9.25" height="9.25" rx="2.37"/><path class="cls-3" d="M522.44,592l-14,24.3a8.51,8.51,0,0,0,7.37,12.76h28.06a8.51,8.51,0,0,0,7.36-12.76l-14-24.3A8.51,8.51,0,0,0,522.44,592Z"/><rect class="cls-5" x="518.2" y="615.66" width="9.25" height="9.25" rx="2.37"/><path class="cls-3" d="M587.41,590.11l-14,24.3a8.51,8.51,0,0,0,7.36,12.76H608.8a8.51,8.51,0,0,0,7.37-12.76l-14-24.3A8.51,8.51,0,0,0,587.41,590.11Z"/><rect class="cls-5" x="583.17" y="613.73" width="9.25" height="9.25" rx="2.37"/><path class="cls-3" d="M662.83,590.11l-14,24.3a8.51,8.51,0,0,0,7.37,12.76h28.06a8.51,8.51,0,0,0,7.36-12.76l-14-24.3A8.51,8.51,0,0,0,662.83,590.11Z"/><rect class="cls-5" x="658.59" y="613.73" width="9.25" height="9.25" rx="2.37"/><path class="cls-3" d="M522.44,702.31l-14,24.3a8.5,8.5,0,0,0,7.37,12.75h28.06a8.5,8.5,0,0,0,7.36-12.75l-14-24.3A8.5,8.5,0,0,0,522.44,702.31Z"/><rect class="cls-5" x="518.2" y="725.93" width="9.25" height="9.25" rx="2.37"/><path class="cls-3" d="M662.83,702.31l-14,24.3a8.5,8.5,0,0,0,7.37,12.75h28.06a8.5,8.5,0,0,0,7.36-12.75l-14-24.3A8.5,8.5,0,0,0,662.83,702.31Z"/><rect class="cls-5" x="658.59" y="725.93" width="9.25" height="9.25" rx="2.37"/><circle class="cls-6" cx="213.64" cy="518.51" r="176.88"/></svg>