<svg xmlns="http://www.w3.org/2000/svg" viewBox="0 0 347.33 583.83"><defs><style>.cls-1{fill:#fff;}</style></defs><g id="Layer_2" data-name="Layer 2"><g id="Layer_1-2" data-name="Layer 1"><path class="cls-1" d="M327.69,117.8q-19.63-35.7-53.84-55.63T198,42.24q-48.19,0-85.08,25.87T60.55,138V30.28A30.28,30.28,0,1,0,0,30.28v86.51H0V553.55a30.28,30.28,0,1,0,60.55,0V397.4c1.32,1,2.65,2,4,2.9q37.17,25.88,84.78,25.87,41.64,0,75.86-19.92A143,143,0,0,0,279,350.91a151,151,0,0,0,12.48-29.56,144.18,144.18,0,0,0,36.17-43.21q19.63-35.38,19.64-80T327.69,117.8ZM48.65,467v82.67a18.38,18.38,0,1,1-36.75,0V331q11.93,33.47,36.75,56.5Zm0-94.72a134.15,134.15,0,0,1-18.9-26.76q-17.85-33-17.85-74.67t17.85-74.67a135.75,135.75,0,0,1,18.9-26.82Zm0-328.3V153.57Q23.89,176.76,11.9,210.8v-94h0V34.12a18.38,18.38,0,1,1,36.75,0V44ZM268.93,345.56q-17.85,33-49.39,51.16t-70.2,18.15q-38.68,0-70.21-18.15a128.61,128.61,0,0,1-18.58-13V258.21Q76,301.65,113.21,327.52T198,353.4q41.64,0,75.86-19.93c.4-.23.79-.48,1.19-.72Q272.29,339.31,268.93,345.56Zm12-30A129.63,129.63,0,0,1,268.2,324Q236.65,342.1,198,342.1T127.78,324Q96.24,305.82,78.4,272.79T60.55,198.12a166.9,166.9,0,0,1,5.87-44.9,134.17,134.17,0,0,1,12.71-8.46q31.53-18.43,70.21-18.45t70.2,18.45a130,130,0,0,1,49.39,51.46q17.83,33,17.84,74.67A166.44,166.44,0,0,1,281,315.55Zm36.61-42.76A133.29,133.29,0,0,1,296,302.37a182.75,182.75,0,0,0,2.64-31.48q0-44.62-19.63-80.32T225.2,134.94Q191,115,149.34,115q-42.82,0-76.71,20.44,2.61-6.13,5.77-12,17.85-33,49.38-51.47T198,53.54q38.67,0,70.21,18.44a130,130,0,0,1,49.38,51.47q17.85,33,17.85,74.67T317.58,272.79Z"/></g></g></svg>