<svg id="Layer_1" data-name="Layer 1" xmlns="http://www.w3.org/2000/svg" viewBox="0 0 2834.65 1080"><defs><style>.cls-1{fill:#ff0d6b;}.cls-2{fill:#fff;}.cls-3{fill:#ffdc4a;}.cls-4,.cls-5{fill:none;stroke-miterlimit:10;stroke-width:3px;}.cls-4{stroke:#ffdc4a;}.cls-5{stroke:#ff0d6b;}</style></defs><path class="cls-1" d="M96.84,665,131,684.61a12,12,0,0,0,17.93-10.36V634.81A12,12,0,0,0,131,624.46L96.84,644.14a12.05,12.05,0,0,0,0,20.83Z"/><rect class="cls-2" x="130.1" y="657.93" width="13" height="13" rx="3.33"/><path class="cls-3" d="M94.19,573.61l34.15,19.64a12,12,0,0,0,17.94-10.35V543.5a12,12,0,0,0-17.94-10.36L94.19,552.82a12,12,0,0,0,0,20.75Z"/><rect class="cls-2" x="127.39" y="566.61" width="13" height="13" rx="3.33"/><path class="cls-1" d="M94.19,467.61l34.15,19.65a12,12,0,0,0,17.94-10.36V437.46a12,12,0,0,0-17.94-10.35L94.19,446.79a12,12,0,0,0,0,20.79Z"/><rect class="cls-2" x="127.39" y="460.6" width="13" height="13" rx="3.33"/><circle class="cls-3" cx="2661.49" cy="637.19" r="19.32"/><circle class="cls-1" cx="2615.68" cy="616.33" r="26.41"/><circle class="cls-3" cx="786.11" cy="132.68" r="19.32"/><circle class="cls-1" cx="825.15" cy="164.44" r="26.41" transform="translate(457.38 921.19) rotate(-75.35)"/><circle class="cls-3" cx="1372.33" cy="354.64" r="19.32"/><circle class="cls-1" cx="1325.19" cy="372.28" r="26.41" transform="translate(124.9 1046.09) rotate(-45)"/><circle class="cls-4" cx="2485.69" cy="956.11" r="64.66"/><circle class="cls-5" cx="2441.36" cy="904.49" r="64.66"/><circle class="cls-4" cx="2419.2" cy="878.69" r="64.66"/><circle class="cls-5" cx="2463.53" cy="930.3" r="64.66"/><rect class="cls-5" x="2649.53" y="213.58" width="115.71" height="115.71" rx="20.45"/><rect class="cls-4" x="2623.03" y="197.06" width="115.71" height="115.71" rx="20.45"/><rect class="cls-5" x="2600.17" y="171.65" width="115.71" height="115.71" rx="20.45"/><rect class="cls-4" x="2573.66" y="155.14" width="115.71" height="115.71" rx="20.45"/></svg>