<svg id="Layer_1" data-name="Layer 1" xmlns="http://www.w3.org/2000/svg" viewBox="0 0 1920 1080"><defs><style>.cls-1{fill:#ff0d6b;}.cls-2{fill:#ff80b4;}.cls-3{fill:#ffdc4a;}.cls-4{fill:#d6af07;}.cls-5{fill:#fff;}.cls-6{fill:#fff6d2;}</style></defs><rect class="cls-1" x="1513.81" y="836.88" width="175.86" height="52.89" rx="26.44" transform="translate(-162.21 1309.86) rotate(-42.53)"/><rect class="cls-2" x="1555.93" y="859.43" width="118.24" height="7.81" rx="2" transform="translate(-158.71 1318.86) rotate(-42.53)"/><rect class="cls-1" x="1770.41" y="486.91" width="30.08" height="99.99" rx="15.04" transform="translate(-76.01 431.64) rotate(-13.5)"/><rect class="cls-2" x="1786.9" y="496.66" width="4.44" height="67.23" rx="1.14" transform="translate(-74.36 432.31) rotate(-13.5)"/><path class="cls-1" d="M1172.56,506.76h0a15.05,15.05,0,0,1,18.14,11.12l16.32,68A15,15,0,0,1,1195.9,604h0a15,15,0,0,1-18.13-11.11l-16.32-68A15,15,0,0,1,1172.56,506.76Z"/><rect class="cls-2" x="1185.68" y="515.14" width="4.44" height="67.23" rx="1.14" transform="translate(-95.28 292.47) rotate(-13.5)"/><path class="cls-1" d="M1078,719.5h0a8.62,8.62,0,0,1,10.49-6.21l38.81,10a8.62,8.62,0,0,1,6.21,10.49h0a8.62,8.62,0,0,1-10.49,6.2L1084.23,730A8.62,8.62,0,0,1,1078,719.5Z"/><rect class="cls-2" x="1102.13" y="703.71" width="2.54" height="38.53" rx="0.65" transform="translate(129.05 1612.25) rotate(-75.62)"/><path class="cls-3" d="M1282.82,391.07h0a22.81,22.81,0,0,1,32.24,1.39l71.73,78.19a22.83,22.83,0,0,1-1.39,32.25h0a22.83,22.83,0,0,1-32.25-1.4l-71.72-78.19A22.81,22.81,0,0,1,1282.82,391.07Z"/><rect class="cls-4" x="1330.74" y="384.47" width="6.75" height="102.03" rx="1.73" transform="matrix(0.74, -0.68, 0.68, 0.74, 56.6, 1016.39)"/><path class="cls-3" d="M1505.07,300.32h0a22.82,22.82,0,0,1,32.24,1.4L1609,379.91a22.83,22.83,0,0,1-1.39,32.25h0a22.84,22.84,0,0,1-32.25-1.4l-71.72-78.19A22.83,22.83,0,0,1,1505.07,300.32Z"/><rect class="cls-4" x="1552.99" y="293.73" width="6.75" height="102.03" rx="1.73" transform="translate(176.4 1142.76) rotate(-42.53)"/><path class="cls-3" d="M1171.05,792.9l69.33-28.12a16.09,16.09,0,0,1,21,8.86h0a16.09,16.09,0,0,1-8.87,21l-69.33,28.13a16.09,16.09,0,0,1-21-8.87h0A16.1,16.1,0,0,1,1171.05,792.9Z"/><rect class="cls-4" x="1168.2" y="788.55" width="71.95" height="4.75" rx="1.22" transform="translate(-208.99 510.66) rotate(-22.08)"/><rect class="cls-3" x="1029.81" y="633.62" width="53.51" height="16.09" rx="8.04" transform="translate(-163.72 444.22) rotate(-22.08)"/><rect class="cls-4" x="1034.78" y="639.06" width="35.97" height="2.38" rx="0.6" transform="translate(-163.46 442.69) rotate(-22.08)"/><path class="cls-3" d="M825.64,987.14,806,1021.3a12,12,0,0,0,10.35,17.92h39.4a11.95,11.95,0,0,0,10.36-17.92l-19.68-34.16a12,12,0,0,0-20.75,0Z"/><rect class="cls-5" x="819.68" y="1020.34" width="13" height="13" rx="3.33"/><path class="cls-3" d="M883.66,905.38,864,939.53a12,12,0,0,0,10.27,17.94H913.7a12,12,0,0,0,10.35-17.94l-19.68-34.15a12,12,0,0,0-20.71,0Z"/><rect class="cls-5" x="877.7" y="938.58" width="13" height="13" rx="3.33"/><path class="cls-3" d="M784.15,905.38l-19.68,34.15a12,12,0,0,0,10.35,17.94h39.44a12,12,0,0,0,10.36-17.94l-19.68-34.15a12,12,0,0,0-20.79,0Z"/><rect class="cls-5" x="778.19" y="938.58" width="13" height="13" rx="3.33"/><path class="cls-3" d="M734.32,832.09l-19.68,34.16A11.95,11.95,0,0,0,725,884.18h39.44a12,12,0,0,0,10.35-17.93l-19.68-34.16a12,12,0,0,0-20.79,0Z"/><rect class="cls-5" x="728.36" y="865.35" width="13" height="13" rx="3.33"/><path class="cls-3" d="M825.64,829.44,806,863.59a12,12,0,0,0,10.35,17.94h39.4a12,12,0,0,0,10.36-17.94l-19.68-34.15a12,12,0,0,0-20.75,0Z"/><rect class="cls-5" x="819.68" y="862.64" width="13" height="13" rx="3.33"/><path class="cls-3" d="M931.65,829.44,912,863.59a12,12,0,0,0,10.36,17.94h39.44a12,12,0,0,0,10.35-17.94l-19.68-34.15a12,12,0,0,0-20.79,0Z"/><rect class="cls-5" x="925.69" y="862.64" width="13" height="13" rx="3.33"/><path class="cls-3" d="M734.32,987.14l-19.68,34.16A12,12,0,0,0,725,1039.22h39.44a11.95,11.95,0,0,0,10.35-17.92l-19.68-34.16a12,12,0,0,0-20.79,0Z"/><rect class="cls-5" x="728.36" y="1020.34" width="13" height="13" rx="3.33"/><path class="cls-3" d="M931.65,987.14,912,1021.3a11.94,11.94,0,0,0,10.36,17.92h39.44a11.95,11.95,0,0,0,10.35-17.92l-19.68-34.16a12,12,0,0,0-20.79,0Z"/><rect class="cls-5" x="925.69" y="1020.34" width="13" height="13" rx="3.33"/><circle class="cls-6" cx="300.28" cy="728.8" r="248.62"/></svg>