<svg id="Layer_1" data-name="Layer 1" xmlns="http://www.w3.org/2000/svg" viewBox="0 0 2834.65 1080"><defs><style>.cls-1{fill:#ff0d6b;}.cls-2{fill:#ff80b4;}.cls-3{fill:#ffdc4a;}.cls-4{fill:#d6af07;}.cls-5{fill:#fff;}.cls-6{fill:#fff6d2;}.cls-7,.cls-8{fill:none;stroke-miterlimit:10;stroke-width:3px;}.cls-7{stroke:#ffdc4a;}.cls-8{stroke:#ff0d6b;}</style></defs><rect class="cls-1" x="2012.96" y="836.88" width="175.86" height="52.89" rx="26.44" transform="translate(-30.89 1647.27) rotate(-42.53)"/><rect class="cls-2" x="2055.08" y="859.43" width="118.24" height="7.81" rx="2" transform="translate(-27.4 1656.27) rotate(-42.53)"/><rect class="cls-1" x="1885" y="814.39" width="28.85" height="95.93" rx="14.42" transform="translate(416.77 2329.73) rotate(-69.12)"/><rect class="cls-2" x="1900.55" y="836.6" width="4.26" height="64.5" rx="1.09" transform="translate(412.78 2336.94) rotate(-69.12)"/><path class="cls-1" d="M2272.92,488.29h0a15,15,0,0,1,18.14,11.12l16.32,68a15,15,0,0,1-11.11,18.14h0a15,15,0,0,1-18.14-11.11l-16.32-68A15,15,0,0,1,2272.92,488.29Z"/><rect class="cls-2" x="2286.05" y="496.66" width="4.44" height="67.23" rx="1.14" transform="translate(-60.56 548.84) rotate(-13.5)"/><path class="cls-1" d="M2162,428.4h0a16.87,16.87,0,0,1,9.21-22l72.6-29.76a16.87,16.87,0,0,1,22,9.21h0a16.87,16.87,0,0,1-9.21,22L2184,437.61A16.87,16.87,0,0,1,2162,428.4Z"/><rect class="cls-2" x="2168.15" y="401.69" width="75.45" height="4.98" rx="1.28" transform="translate(11.53 866.9) rotate(-22.29)"/><path class="cls-1" d="M1671.71,506.76h0a15,15,0,0,1,18.14,11.12l16.32,68a15,15,0,0,1-11.06,18.1l-.06,0h0a15,15,0,0,1-18.11-11l0-.07-16.32-68a15,15,0,0,1,11-18.11Z"/><rect class="cls-2" x="1684.83" y="515.14" width="4.44" height="67.23" rx="1.14" transform="translate(-81.49 409) rotate(-13.5)"/><path class="cls-1" d="M1577.15,719.5h0a8.62,8.62,0,0,1,10.49-6.21l38.81,10a8.62,8.62,0,0,1,6.21,10.49h0a8.62,8.62,0,0,1-10.49,6.2l-38.79-10a8.62,8.62,0,0,1-6.24-10.47Z"/><rect class="cls-2" x="1601.29" y="703.71" width="2.54" height="38.53" rx="0.65" transform="translate(504.24 2095.77) rotate(-75.62)"/><path class="cls-3" d="M1782,391.07h0a22.81,22.81,0,0,1,32.23,1.38h0l71.73,78.19a22.83,22.83,0,0,1-1.39,32.25h0a22.83,22.83,0,0,1-32.25-1.4l-71.72-78.19a22.81,22.81,0,0,1,1.38-32.23Z"/><rect class="cls-4" x="1835.73" y="380.18" width="6.78" height="102.54" rx="1.74" transform="translate(193 1358.16) rotate(-42.58)"/><path class="cls-3" d="M2004.22,300.32h0a22.81,22.81,0,0,1,32.24,1.4l71.69,78.19a22.83,22.83,0,0,1-1.39,32.25h0a22.84,22.84,0,0,1-32.25-1.4l-71.72-78.19A22.83,22.83,0,0,1,2004.22,300.32Z"/><rect class="cls-4" x="2052.14" y="293.73" width="6.75" height="102.03" rx="1.73" transform="translate(307.72 1480.17) rotate(-42.53)"/><path class="cls-3" d="M2357.66,764.67h0a13.8,13.8,0,0,1-17.26,9.06l-61.15-19.05a13.79,13.79,0,0,1-9.07-17.26h0a13.8,13.8,0,0,1,17.26-9.06l61.17,19A13.78,13.78,0,0,1,2357.66,764.67Z"/><rect class="cls-4" x="2315.36" y="726.25" width="4.08" height="61.61" rx="1.04" transform="translate(905.92 2744.81) rotate(-72.71)"/><path class="cls-3" d="M1670.2,792.9l69.33-28.12a16.09,16.09,0,0,1,21,8.81l0,0h0a16.09,16.09,0,0,1-8.82,21l0,0-69.33,28.13a16.09,16.09,0,0,1-21-8.82l0-.05h0a16.11,16.11,0,0,1,8.83-21Z"/><rect class="cls-4" x="1667.35" y="788.55" width="71.95" height="4.75" rx="1.22" transform="translate(-172.39 698.29) rotate(-22.08)"/><path class="cls-3" d="M1737.53,914l47.54,94.2a22.68,22.68,0,0,1-10,30.51l-.07,0h0a22.69,22.69,0,0,1-30.5-10l0-.07L1697,934.49a22.69,22.69,0,0,1,10-30.51l.08,0h0a22.72,22.72,0,0,1,30.52,10Z"/><rect class="cls-4" x="1740.78" y="909.59" width="6.7" height="101.48" rx="1.72" transform="translate(-245.62 888.81) rotate(-26.78)"/><rect class="cls-3" x="1528.95" y="633.62" width="53.51" height="16.09" rx="8.04" transform="translate(-127.11 631.85) rotate(-22.08)"/><rect class="cls-4" x="1533.93" y="639.06" width="35.97" height="2.38" rx="0.6" transform="translate(-126.85 630.32) rotate(-22.08)"/><path class="cls-3" d="M1324.79,987.14l-19.64,34.16a12,12,0,0,0,10.35,17.92h39.4a11.95,11.95,0,0,0,10.36-17.92l-19.68-34.16a12,12,0,0,0-20.75,0Z"/><rect class="cls-5" x="1318.83" y="1020.34" width="13" height="13" rx="3.33"/><path class="cls-3" d="M1382.81,905.38l-19.66,34.15a12,12,0,0,0,4.48,16.37,12.13,12.13,0,0,0,5.79,1.57h39.43a12,12,0,0,0,10.35-17.94l-19.68-34.15a12,12,0,0,0-20.71,0Z"/><rect class="cls-5" x="1376.85" y="938.58" width="13" height="13" rx="3.33"/><path class="cls-3" d="M1283.3,905.38l-19.68,34.15A12,12,0,0,0,1274,957.47h39.44a12,12,0,0,0,10.36-17.94l-19.68-34.15a12,12,0,0,0-20.79,0Z"/><rect class="cls-5" x="1277.34" y="938.58" width="13" height="13" rx="3.33"/><path class="cls-3" d="M1233.47,832.09l-19.68,34.16a11.95,11.95,0,0,0,10.36,17.93h39.44a12,12,0,0,0,10.35-17.93l-19.68-34.16a12,12,0,0,0-20.79,0Z"/><rect class="cls-5" x="1227.51" y="865.35" width="13" height="13" rx="3.33"/><path class="cls-3" d="M1324.79,829.44l-19.64,34.15a12,12,0,0,0,10.35,17.94h39.4a12,12,0,0,0,10.36-17.94l-19.68-34.15a12,12,0,0,0-20.75,0Z"/><rect class="cls-5" x="1318.83" y="862.64" width="13" height="13" rx="3.33"/><path class="cls-3" d="M1430.8,829.44l-19.65,34.15a12,12,0,0,0,10.36,17.94H1461a12,12,0,0,0,10.35-17.94l-19.68-34.15a12,12,0,0,0-20.79,0Z"/><rect class="cls-5" x="1424.84" y="862.64" width="13" height="13" rx="3.33"/><path class="cls-3" d="M1233.47,987.14l-19.68,34.16a12,12,0,0,0,10.36,17.92h39.44a11.95,11.95,0,0,0,10.35-17.92l-19.68-34.16a12,12,0,0,0-20.79,0Z"/><rect class="cls-5" x="1227.51" y="1020.34" width="13" height="13" rx="3.33"/><path class="cls-3" d="M1430.8,987.14l-19.65,34.16a11.94,11.94,0,0,0,10.36,17.92H1461a11.95,11.95,0,0,0,10.35-17.92l-19.68-34.16a12,12,0,0,0-20.79,0Z"/><rect class="cls-5" x="1424.84" y="1020.34" width="13" height="13" rx="3.33"/><path class="cls-3" d="M2595.69,563l-34.16-19.64a12,12,0,0,0-17.92,10.35v39.4a11.95,11.95,0,0,0,17.92,10.36l34.16-19.68a12,12,0,0,0,0-20.75Z"/><rect class="cls-5" x="2549.49" y="557" width="13" height="13" rx="3.33"/><path class="cls-3" d="M2677.45,621l-34.15-19.66a12,12,0,0,0-16.37,4.49,11.85,11.85,0,0,0-1.57,5.78V651a12,12,0,0,0,17.94,10.35l34.15-19.68a12,12,0,0,0,0-20.71Z"/><rect class="cls-5" x="2631.25" y="615.02" width="13" height="13" rx="3.33"/><path class="cls-3" d="M2677.45,521.47l-34.15-19.68a12,12,0,0,0-17.94,10.35v39.44a12,12,0,0,0,17.94,10.36l34.15-19.68a12,12,0,0,0,4.4-16.39A12.21,12.21,0,0,0,2677.45,521.47Z"/><rect class="cls-5" x="2631.25" y="515.51" width="13" height="13" rx="3.33"/><path class="cls-1" d="M2750.74,471.64,2716.58,452a11.95,11.95,0,0,0-17.93,10.36v39.44a12,12,0,0,0,17.93,10.35l34.16-19.68a12,12,0,0,0,4.4-16.39A12.21,12.21,0,0,0,2750.74,471.64Z"/><rect class="cls-5" x="2704.48" y="465.68" width="13" height="13" rx="3.33"/><path class="cls-3" d="M2753.39,563l-34.15-19.64a12,12,0,0,0-17.94,10.35v39.4a12,12,0,0,0,17.94,10.36l34.15-19.68a12,12,0,0,0,0-20.75Z"/><rect class="cls-5" x="2707.19" y="557" width="13" height="13" rx="3.33"/><path class="cls-1" d="M2753.39,669l-34.15-19.65a12,12,0,0,0-17.94,10.36v39.44a12,12,0,0,0,17.94,10.35l34.15-19.68a12,12,0,0,0,4.4-16.39,12.21,12.21,0,0,0-4.4-4.4Z"/><rect class="cls-5" x="2707.19" y="663.01" width="13" height="13" rx="3.33"/><path class="cls-1" d="M2595.69,471.64,2561.53,452a12,12,0,0,0-17.92,10.36v39.44a11.95,11.95,0,0,0,17.92,10.35l34.16-19.68a12,12,0,0,0,4.4-16.39A12.21,12.21,0,0,0,2595.69,471.64Z"/><rect class="cls-5" x="2549.49" y="465.68" width="13" height="13" rx="3.33"/><path class="cls-1" d="M2595.69,669l-34.16-19.65a11.94,11.94,0,0,0-17.92,10.36v39.44a11.95,11.95,0,0,0,17.92,10.35l34.16-19.68a12,12,0,0,0,4.4-16.39,12.21,12.21,0,0,0-4.4-4.4Z"/><rect class="cls-5" x="2549.49" y="663.01" width="13" height="13" rx="3.33"/><circle class="cls-6" cx="799.43" cy="728.8" r="248.62"/><circle class="cls-7" cx="166.84" cy="850.02" r="64.66"/><circle class="cls-3" cx="200.09" cy="499.42" r="19.32"/><circle class="cls-1" cx="245.9" cy="520.28" r="26.41"/><circle class="cls-3" cx="934.99" cy="238.53" r="19.32"/><circle class="cls-1" cx="914.13" cy="284.34" r="26.41"/><circle class="cls-8" cx="211.17" cy="901.64" r="64.66"/><circle class="cls-7" cx="233.33" cy="927.44" r="64.66"/><circle class="cls-8" cx="189" cy="875.83" r="64.66"/><rect class="cls-8" x="265.88" y="95.45" width="173.28" height="173.28" rx="30.63"/><rect class="cls-7" x="305.57" y="120.18" width="173.28" height="173.28" rx="30.63"/><rect class="cls-8" x="339.81" y="158.24" width="173.28" height="173.28" rx="30.63"/><rect class="cls-7" x="379.5" y="182.96" width="173.28" height="173.28" rx="30.63"/></svg>