<svg id="Layer_1" data-name="Layer 1" xmlns="http://www.w3.org/2000/svg" viewBox="0 0 2834.65 1080"><defs><style>.cls-1{fill:#ff0d6b;}.cls-2{fill:#fff;}.cls-3{fill:#ffdc4a;}.cls-4,.cls-5{fill:none;stroke-miterlimit:10;stroke-width:3px;}.cls-4{stroke:#ff0d6b;}.cls-5{stroke:#ffdc4a;}</style></defs><path class="cls-1" d="M53.87,591.23,81,606.81a9.48,9.48,0,0,0,14.23-8.22v-31.3A9.53,9.53,0,0,0,81,559.08L53.87,574.7a9.52,9.52,0,0,0-3.5,13A9.71,9.71,0,0,0,53.87,591.23Z"/><rect class="cls-2" x="80.26" y="585.64" width="10.32" height="10.32" rx="2.64"/><path class="cls-3" d="M51.76,518.73l27.1,15.59A9.53,9.53,0,0,0,93.1,526.1V494.84a9.52,9.52,0,0,0-14.24-8.22l-27.1,15.61a9.52,9.52,0,0,0,0,16.47Z"/><rect class="cls-2" x="78.11" y="513.18" width="10.32" height="10.32" rx="2.64"/><path class="cls-1" d="M51.76,434.62l27.1,15.59A9.53,9.53,0,0,0,93.1,442v-31.3a9.52,9.52,0,0,0-14.24-8.21L51.76,418.1a9.52,9.52,0,0,0-3.49,13,9.65,9.65,0,0,0,3.49,3.49Z"/><rect class="cls-2" x="78.11" y="429.05" width="10.32" height="10.32" rx="2.64"/><circle class="cls-3" cx="2661.49" cy="637.19" r="19.32"/><circle class="cls-1" cx="2615.68" cy="616.33" r="26.41"/><circle class="cls-3" cx="786.11" cy="132.68" r="19.32"/><circle class="cls-1" cx="825.15" cy="164.44" r="26.41" transform="translate(457.38 921.19) rotate(-75.35)"/><circle class="cls-3" cx="1476.65" cy="229.91" r="19.32"/><circle class="cls-1" cx="1429.51" cy="247.55" r="26.41" transform="translate(243.65 1083.32) rotate(-45)"/><rect class="cls-4" x="120.47" y="72" width="115.71" height="115.71" rx="20.45"/><rect class="cls-5" x="93.96" y="55.49" width="115.71" height="115.71" rx="20.45"/><rect class="cls-4" x="71.1" y="30.07" width="115.71" height="115.71" rx="20.45"/><rect class="cls-5" x="44.59" y="13.57" width="115.71" height="115.71" rx="20.45"/></svg>